<svg version="1.1" xmlns="http://www.w3.org/2000/svg" xmlns:xlink="http://www.w3.org/1999/xlink" width="37.20394" height="30.31119" viewBox="0,0,37.20394,30.31119"><g transform="translate(-221.39803,-164.8444)"><g data-paper-data="{&quot;isPaintingLayer&quot;:true}" fill-rule="nonzero" stroke="none" stroke-width="1" stroke-linecap="butt" stroke-linejoin="miter" stroke-miterlimit="10" stroke-dasharray="" stroke-dashoffset="0" style="mix-blend-mode: normal"><g><path d="M221.69479,189.49597l-0.04606,-0.548l0.39733,-1.30355l1.22257,-2.42419l2.32513,-2.62128l3.30722,-3.21657l0.91565,-0.87738l5.52495,-2.26151l2.42045,0.99309l1.14401,1.08348l1.40873,1.91464l0.85198,1.50614l0.5047,1.29341l0.07901,1.48342l-0.53848,1.57745l-2.76491,3.67786l-1.68724,1.15242l-1.29125,0.88195l-2.19428,1.29725l-1.91505,0.92979l-1.84375,0.55362l-1.77633,0.35658l-1.29224,-0.08061l-1.20886,-0.32819l-0.25118,-1.36583l-0.76754,-1.56735l-0.87812,-1.06385l-0.88032,-0.73437l-0.76612,-0.30841" fill="#c1b4d8"/><path d="M234.94627,178.25236l-0.03304,-0.04838l1.124,-0.64627l1.21147,-0.77696l0.32685,0.25673l1.11422,1.07757l1.74777,2.29938l1.04697,1.86556l0.20647,1.11888l-2.0761,1.39302l-0.78572,-1.63093l-1.68629,-2.6537l-1.48657,-1.80718l-0.71003,-0.44772" fill="#897ab8"/><path d="M228.49354,194.68131l-0.18075,-0.70823l0.18626,-0.98415l0.58696,-0.80412l1.10187,-0.7526l1.52019,0.00773l0.70386,0.43906l0.5595,1.004l0.05552,0.34005l-1.80617,0.83043l-2.03398,0.6078l-0.69327,0.02005" fill="#ef463c"/><path d="M225.15745,194.56561l-1.09711,-0.46031l-1.09583,-0.71721l-0.93543,-1.48045l-0.39373,-1.46364l0.06185,-0.7227l0.17217,-0.11759l0.94677,0.462l1.06674,1.12893l0.88421,1.39474l0.46396,1.27074l-0.07361,0.70548" fill="#ef463c"/><path d="M234.91229,188.33133l0.26844,-0.30934l3.53332,-2.58981l2.78911,-1.90502l0.33026,0.0769l1.00384,0.065l1.21324,-0.55295l1.63542,-1.11702l1.01596,-0.69392l-0.21609,0.42331l-1.56963,2.61806l-2.19305,3.11077l-2.05827,2.16178l-2.18337,1.2393l-1.62998,-0.0206l-1.19359,-0.84813l-0.74561,-1.65833" fill="#ef463c"/><path d="M229.55451,179.96918l-0.44766,-0.80291l-0.05792,-1.11985l0.61911,-1.60727l1.91567,-1.40943l2.14522,-1.03676l0.5776,-0.04153l3.4558,-1.15072l3.29048,-0.35735l-0.94045,0.69284l-1.73973,1.11253l-1.02986,1.00589l-0.27481,0.81791l0.19742,0.84354l-2.46227,1.34849l-2.15424,1.3555l-2.06775,1.26107l-0.23642,0.06049l-0.46556,-0.31196l-0.32462,-0.66047" fill="#ef463c"/><path d="M232.18734,193.62028l-0.5228,0.30659l-1.16369,0.36636l-0.98522,0.29496l-0.16583,-0.94515l0.27292,-0.67244l0.79197,-0.54093l0.9,0.0978l0.70052,0.65595l0.17215,0.43688" fill="#ffffff"/><path d="M237.4262,176.81328c0.19755,0.02641 0.35595,0.06794 0.45971,0.2435c0.05772,0.09818 0.17281,0.16096 0.25726,0.24468c0.15264,0.15176 0.30471,0.30417 0.45117,0.46167c0.19669,0.21182 0.39338,0.42439 0.58034,0.64487c0.13287,0.15719 0.24889,0.32891 0.37414,0.49232c0.04108,0.05349 0.08371,0.10593 0.13177,0.15264c0.16956,0.1647 0.29782,0.35988 0.42133,0.55957c0.04088,0.06651 0.06624,0.14614 0.15974,0.16585c0.02081,0.00422 0.04007,0.03575 0.05248,0.05909c0.19408,0.36105 0.38679,0.72303 0.58053,1.08432c0.01618,0.0296 0.02983,0.06623 0.05547,0.08381c0.17922,0.12377 0.23511,0.32242 0.31491,0.50652c0.01597,0.03706 0.02947,0.07531 0.04579,0.11214c0.05713,0.12838 0.11282,0.25723 0.17312,0.38395c0.04643,0.09756 0.09966,0.19174 0.14827,0.28806c0.09683,0.19241 0.19685,0.38062 0.16331,0.61208c-0.01718,0.11753 -0.00215,0.24083 0.00614,0.3609c0.00561,0.08252 0.12452,0.19672 0.21453,0.20393c0.29253,0.02314 0.59099,0.06975 0.87528,-0.01787c0.35385,-0.10888 0.70909,-0.22275 1.02887,-0.41995c0.22433,-0.13807 0.45701,-0.26392 0.67705,-0.40866c0.35368,-0.23223 0.68774,-0.49095 0.99676,-0.78155c0.05396,-0.05074 0.12491,-0.08254 0.18227,-0.12979c0.20828,-0.17155 0.44794,-0.31934 0.60979,-0.52709c0.12262,-0.15723 0.26337,-0.26094 0.4168,-0.36346c0.15411,0.10254 0.19377,0.25597 0.12835,0.40897c-0.10205,0.23836 -0.20131,0.4786 -0.28483,0.72376c-0.07015,0.20597 -0.15314,0.40051 -0.27939,0.58016c-0.10422,0.14794 -0.17622,0.31831 -0.27857,0.4675c-0.22059,0.3221 -0.45359,0.63527 -0.67709,0.95532c-0.11969,0.17113 -0.22866,0.34984 -0.3448,0.52359c-0.09583,0.14322 -0.19236,0.28616 -0.29397,0.425c-0.04283,0.05854 -0.10065,0.10586 -0.15095,0.15865c-0.05047,0.0529 -0.12393,0.09803 -0.14617,0.16119c-0.09382,0.26557 -0.26359,0.47797 -0.44324,0.68702c-0.05109,0.05939 -0.07346,0.14309 -0.12021,0.20734c-0.22512,0.30955 -0.45625,0.61436 -0.68085,0.92431c-0.10672,0.14687 -0.20213,0.30218 -0.30588,0.45156c-0.07563,0.10922 -0.14659,0.21677 -0.25278,0.30824c-0.1405,0.12071 -0.24263,0.2854 -0.36501,0.42782c-0.12616,0.14651 -0.25213,0.29366 -0.38606,0.43285c-0.23334,0.24244 -0.46836,0.48351 -0.71083,0.71628c-0.14091,0.13563 -0.29329,0.25965 -0.44849,0.37879c-0.27337,0.21045 -0.54354,0.42705 -0.83179,0.61534c-0.26546,0.17323 -0.55269,0.31311 -0.83098,0.46607c-0.02845,0.01564 -0.06273,0.02164 -0.09448,0.03171c-0.17346,0.05434 -0.34758,0.10586 -0.5199,0.16372c-0.07639,0.02567 -0.15325,0.0562 -0.22183,0.09774c-0.10637,0.06458 -0.20451,0.07985 -0.32391,0.02556c-0.06208,-0.02804 -0.1466,-0.01576 -0.21979,-0.00869c-0.24355,0.02344 -0.48619,0.02455 -0.72299,-0.04121c-0.06631,-0.01834 -0.11331,-0.01729 -0.16748,0.02501c-0.06346,0.04941 -0.13708,0.0858 -0.20113,0.13434c-0.19313,0.14605 -0.3825,0.29686 -0.57604,0.44268c-0.05855,0.04403 -0.12278,0.08159 -0.18763,0.11603c-0.28651,0.15201 -0.57704,0.29667 -0.8599,0.45478c-0.10931,0.06102 -0.19891,0.15681 -0.30508,0.22428c-0.11765,0.07505 -0.24418,0.13673 -0.36748,0.20277c-0.08904,0.04744 -0.18062,0.0908 -0.26902,0.13881c-0.25687,0.1396 -0.51061,0.28563 -0.7702,0.41976c-0.26448,0.13696 -0.53297,0.26657 -0.80294,0.39289c-0.42018,0.1966 -0.83999,0.39522 -1.26657,0.57726c-0.17801,0.07614 -0.37331,0.11182 -0.56058,0.16626c-0.0513,0.01509 -0.11255,0.01931 -0.15129,0.05057c-0.16156,0.12979 -0.35184,0.16911 -0.54823,0.18433c-0.28832,0.02221 -0.54526,0.15024 -0.8164,0.23014c-0.02588,0.00758 -0.04977,0.02213 -0.07569,0.0267c-0.33945,0.05713 -0.67881,0.11293 -1.0181,0.1692c-0.05541,0.00907 -0.11161,-0.01037 -0.15772,0.06001c-0.02144,0.03257 -0.12537,0.0316 -0.18321,0.0153c-0.21285,-0.05989 -0.42445,-0.07544 -0.64178,-0.02951c-0.04558,0.00942 -0.09501,0.01061 -0.14117,0.00477c-0.3516,-0.04642 -0.70272,-0.09545 -1.05428,-0.14291c-0.01975,-0.00267 -0.04217,-0.00629 -0.06032,0.00004c-0.1769,0.06149 -0.33892,-0.02378 -0.47905,-0.09142c-0.16967,-0.08206 -0.34665,-0.11014 -0.52091,-0.15827c-0.09171,-0.02522 -0.17671,-0.04468 -0.25359,-0.11362c-0.07343,-0.06574 -0.17428,-0.10138 -0.26433,-0.1482c-0.11337,-0.05916 -0.22719,-0.11675 -0.34204,-0.17288c-0.04105,-0.02018 -0.08428,-0.03763 -0.12831,-0.04997c-0.10042,-0.02836 -0.19546,-0.04626 -0.27656,-0.1358c-0.07302,-0.08066 -0.19367,-0.11869 -0.29354,-0.1747c-0.03422,-0.01905 -0.0781,-0.02821 -0.1035,-0.05505c-0.10177,-0.10723 -0.19965,-0.21838 -0.29576,-0.33099c-0.11825,-0.13764 -0.24109,-0.27239 -0.34769,-0.41848c-0.12076,-0.16571 -0.23264,-0.33875 -0.33629,-0.51565c-0.30866,-0.52694 -0.56236,-1.08284 -0.67366,-1.68348c-0.07313,-0.39392 -0.13469,-0.79827 -0.08036,-1.20704c0.02189,-0.1672 0.02356,-0.33776 0.02369,-0.50651c0.00074,-0.38706 0.12239,-0.7446 0.24998,-1.10267c0.06801,-0.19062 0.11691,-0.38814 0.18172,-0.58011c0.04338,-0.1276 0.09104,-0.25559 0.1525,-0.37558c0.19066,-0.37109 0.38876,-0.73869 0.58419,-1.10723c0.01932,-0.03567 0.04776,-0.06797 0.0597,-0.10592c0.12854,-0.4029 0.40557,-0.71407 0.65849,-1.03578c0.36364,-0.46273 0.74776,-0.90915 1.12645,-1.35945c0.07778,-0.09277 0.17162,-0.17125 0.2553,-0.25871c0.08442,-0.08821 0.17979,-0.17001 0.24557,-0.27074c0.21695,-0.33149 0.50717,-0.59637 0.77677,-0.87999c0.20009,-0.2109 0.40346,-0.41848 0.61209,-0.62056c0.291,-0.28259 0.58996,-0.55722 0.88196,-0.83872c0.121,-0.11673 0.23164,-0.24381 0.34925,-0.36403c0.12264,-0.12542 0.25164,-0.24484 0.37176,-0.37284c0.15647,-0.16646 0.30359,-0.34142 0.46105,-0.50679c0.08356,-0.08763 0.17817,-0.16537 0.27184,-0.24299c0.09254,-0.07633 0.14088,-0.15379 0.14374,-0.29007c0.00879,-0.386 0.0159,-0.77741 0.08521,-1.15576c0.09926,-0.54373 0.31467,-1.04308 0.69803,-1.46474c0.33417,-0.36762 0.69686,-0.69866 1.09519,-0.99194c0.23413,-0.17178 0.47641,-0.33348 0.72289,-0.48718c0.10727,-0.06696 0.23706,-0.09652 0.35197,-0.15304c0.22411,-0.11141 0.43938,-0.24279 0.66907,-0.3416c0.24759,-0.10624 0.507,-0.18445 0.76141,-0.27515c0.08859,-0.03147 0.17675,-0.06467 0.26552,-0.09551c0.19839,-0.06885 0.39498,-0.14329 0.59597,-0.2028c0.18807,-0.05549 0.38283,-0.08752 0.57108,-0.14313c0.27141,-0.0806 0.539,-0.17272 0.80831,-0.26047c0.37291,-0.12164 0.74539,-0.24501 1.11894,-0.36533c0.11489,-0.03732 0.23326,-0.06363 0.34839,-0.10061c0.5247,-0.16851 1.07686,-0.19924 1.6102,-0.32517c0.32166,-0.07579 0.64823,-0.1322 0.97343,-0.19171c0.0928,-0.01718 0.18962,-0.01034 0.28335,-0.02209c0.1599,-0.02059 0.31792,-0.05429 0.47782,-0.06933c0.20189,-0.01973 0.40536,-0.02312 0.60764,-0.03933c0.1118,-0.00895 0.22228,-0.0372 0.33405,-0.0436c0.07553,-0.00438 0.15975,-0.02377 0.21275,0.07157c0.04639,0.08345 0.03133,0.14827 -0.00849,0.22748c-0.0487,0.09689 -0.10743,0.16654 -0.21965,0.18891c-0.1135,0.02273 -0.20662,0.08785 -0.30258,0.15289c-0.13941,0.09421 -0.29976,0.15702 -0.44117,0.2483c-0.20788,0.13517 -0.40711,0.28412 -0.60993,0.42745c-0.06059,0.0429 -0.11958,0.08849 -0.18065,0.12995c-0.20001,0.1356 -0.40291,0.26661 -0.60028,0.40571c-0.12537,0.08815 -0.24293,0.18663 -0.36377,0.28103c-0.05343,0.04154 -0.10227,0.09055 -0.16029,0.12463c-0.29852,0.17436 -0.54222,0.41049 -0.78363,0.65517c-0.12831,0.13005 -0.25608,0.25646 -0.35354,0.40913c-0.04592,0.07176 -0.08863,0.15598 -0.09737,0.2382c-0.02169,0.21074 -0.04755,0.4261 -0.02577,0.63468c0.0159,0.15452 0.10418,0.30151 0.15731,0.44398zM234.27745,192.31136c-0.02391,-0.16697 -0.03238,-0.32354 -0.07019,-0.47243c-0.17003,-0.67036 -0.45882,-1.29722 -0.72733,-1.93062c-0.06315,-0.14901 -0.15242,-0.28674 -0.22967,-0.42941c-0.28925,-0.53439 -0.57454,-1.07074 -0.87005,-1.60135c-0.10842,-0.19459 -0.24448,-0.37384 -0.36354,-0.56293c-0.25166,-0.40024 -0.4884,-0.81043 -0.75435,-1.20091c-0.2008,-0.2951 -0.46022,-0.55144 -0.65188,-0.85127c-0.19873,-0.31091 -0.48118,-0.54368 -0.69907,-0.83646c-0.28466,-0.38276 -0.62202,-0.72623 -0.93959,-1.08398c-0.14326,-0.16095 -0.28237,-0.32802 -0.44391,-0.46916c-0.17725,-0.1549 -0.37644,-0.28573 -0.56985,-0.42177c-0.14374,-0.10103 -0.29284,-0.19437 -0.44033,-0.28981c-0.16893,-0.10908 -0.33485,-0.22299 -0.50941,-0.32292c-0.15709,-0.08989 -0.3195,-0.07668 -0.42409,0.02304c-0.31766,0.30382 -0.63314,0.61045 -0.94857,0.91679c-0.01871,0.01808 -0.02858,0.04502 -0.04465,0.0666c-0.11663,0.15566 -0.22508,0.31886 -0.35321,0.4647c-0.21281,0.24256 -0.47233,0.43926 -0.66399,0.70575c-0.18466,0.25641 -0.39865,0.49169 -0.59835,0.73717c-0.08921,0.10966 -0.17673,0.2207 -0.26303,0.33241c-0.14427,0.18616 -0.31002,0.36047 -0.42653,0.56325c-0.30556,0.53113 -0.59022,1.07474 -0.88105,1.6145c-0.03178,0.05882 -0.05,0.1253 -0.07375,0.18849c-0.11105,0.29728 -0.22471,0.59331 -0.33152,0.89199c-0.11472,0.32074 -0.16832,0.65074 -0.14014,0.97664c0.23637,0.13573 0.46046,0.2594 0.67945,0.39185c0.16711,0.10123 0.35792,0.18653 0.48452,0.32679c0.25966,0.28849 0.63832,0.46287 0.80568,0.83913c0.00974,0.02239 0.04196,0.03371 0.05896,0.05416c0.16797,0.20341 0.35327,0.39523 0.49735,0.61394c0.1882,0.28553 0.33841,0.59601 0.51606,0.889c0.07212,0.1189 0.0914,0.2499 0.13636,0.37523c0.07026,0.19566 0.15643,0.38651 0.24334,0.57585c0.16491,0.35825 0.18592,0.73096 0.12305,1.12612c0.24325,0.05857 0.48806,0.11683 0.73238,0.17694c0.24414,0.06023 0.4905,0.06643 0.74167,0.05672c0.33573,-0.01268 0.67249,0.00424 1.00831,-0.00572c0.13793,-0.00433 0.28095,-0.0245 0.40964,-0.10482c-0.0571,-0.23848 -0.11304,-0.46715 -0.16622,-0.69619c-0.01216,-0.05255 -0.0309,-0.10993 -0.02129,-0.16018c0.05417,-0.28444 0.07253,-0.58582 0.18375,-0.84736c0.29629,-0.69775 0.79917,-1.21241 1.50268,-1.52022c0.37192,-0.16263 0.76395,-0.23447 1.16341,-0.25254c0.56465,-0.02537 1.03636,0.23164 1.46411,0.55959c0.39065,0.2995 0.62389,0.72268 0.80736,1.19905c0.34669,-0.20069 0.68436,-0.39573 1.04749,-0.60562zM239.38771,184.80567c-0.09295,-0.26879 -0.17111,-0.50374 -0.25504,-0.73677c-0.10793,-0.30072 -0.24876,-0.58452 -0.44087,-0.84213c-0.07298,-0.09761 -0.14575,-0.19712 -0.20167,-0.30487c-0.18024,-0.34854 -0.36282,-0.69422 -0.60251,-1.00744c-0.1229,-0.16072 -0.22413,-0.33775 -0.33516,-0.50733c-0.16829,-0.25747 -0.32454,-0.52468 -0.50808,-0.77123c-0.20439,-0.27448 -0.39565,-0.55968 -0.64019,-0.80421c-0.17997,-0.18031 -0.33779,-0.38181 -0.50775,-0.57224c-0.06196,-0.06928 -0.13469,-0.12918 -0.19522,-0.19969c-0.21166,-0.24704 -0.48739,-0.41194 -0.75457,-0.58722c-0.03099,-0.02024 -0.09738,-0.01504 -0.13307,0.00479c-0.24141,0.13156 -0.48592,0.25968 -0.71531,0.4103c-0.15603,0.10278 -0.29183,0.23442 -0.476,0.29305c-0.05019,0.01635 -0.09448,0.05241 -0.14013,0.08132c-0.19935,0.12808 -0.39617,0.25948 -0.5974,0.38405c-0.39086,0.24248 -0.78856,0.47421 -1.17494,0.72398c-0.36647,0.23642 -0.71945,0.49443 -1.08444,0.73413c-0.13301,0.08731 -0.29962,0.11804 -0.43538,0.02721c-0.16612,-0.11125 -0.34628,-0.21089 -0.46755,-0.38105c-0.17804,-0.25031 -0.3602,-0.4978 -0.53864,-0.74758c-0.01874,-0.02633 -0.02211,-0.06342 -0.0357,-0.09403c-0.05804,-0.13155 -0.1171,-0.26239 -0.1804,-0.40423c-0.32566,0.33277 -0.62829,0.65082 -0.94081,0.95921c-0.31331,0.30944 -0.64388,0.60138 -0.95991,0.93161c0.15308,0.08254 0.28754,0.14042 0.40574,0.22179c0.20842,0.14397 0.40329,0.30729 0.61057,0.45329c0.28131,0.1982 0.573,0.38275 0.81245,0.63353c0.09643,0.10052 0.17266,0.22469 0.28111,0.30843c0.25416,0.19579 0.42905,0.45406 0.61337,0.70765c0.06743,0.09281 0.14657,0.17762 0.22472,0.2621c0.17311,0.18727 0.35818,0.36435 0.52167,0.55971c0.15398,0.18367 0.28304,0.38815 0.42953,0.57896c0.10258,0.13319 0.22708,0.25039 0.32121,0.38859c0.20392,0.29929 0.39343,0.60892 0.59132,0.91233c0.09539,0.14668 0.21527,0.28043 0.29081,0.43612c0.12196,0.25175 0.28761,0.47062 0.45346,0.69164c0.05138,0.06893 0.09163,0.14672 0.13216,0.22307c0.06192,0.11728 0.11632,0.23869 0.18013,0.35467c0.10012,0.18208 0.19589,0.36739 0.31002,0.5404c0.16478,0.24901 0.26472,0.53322 0.44542,0.77338c0.06217,0.08252 0.09514,0.19104 0.12554,0.29248c0.08736,0.29129 0.1713,0.58238 0.38377,0.81473c0.02114,0.02318 0.02832,0.05994 0.03844,0.0914c0.02189,0.06938 0.03974,0.14025 0.06278,0.2091c0.03981,0.12001 0.08849,0.23749 0.12241,0.35925c0.0684,0.24616 0.12856,0.49468 0.19541,0.74115c0.00833,0.03067 0.03642,0.05592 0.05512,0.08329c0.66754,-0.30243 1.58477,-0.89433 1.71424,-1.09663c-0.21164,-0.18898 -0.41512,-0.38227 -0.63121,-0.56114c-0.26787,-0.22177 -0.43386,-0.51137 -0.57409,-0.81982c-0.11391,-0.25068 -0.22292,-0.50345 -0.33407,-0.75526c-0.05987,-0.13534 -0.12556,-0.26848 -0.17788,-0.40645c-0.05459,-0.14425 -0.01433,-0.21543 0.12611,-0.28484c0.05877,-0.02929 0.1162,-0.07053 0.15931,-0.11942c0.13174,-0.14906 0.27495,-0.28096 0.45766,-0.36536c0.03038,-0.01393 0.06398,-0.02906 0.08534,-0.05324c0.2637,-0.29853 0.64859,-0.43442 0.93775,-0.7016c0.13645,-0.12627 0.31594,-0.20468 0.46823,-0.31552c0.21315,-0.15518 0.40983,-0.33522 0.63064,-0.4777c0.35176,-0.22764 0.69932,-0.45922 1.03562,-0.70912c0.25767,-0.19165 0.52961,-0.36501 0.81592,-0.56057zM246.29583,181.81783c-0.15148,0.11609 -0.27072,0.20915 -0.39178,0.29991c-0.10219,0.07662 -0.20633,0.15001 -0.30928,0.22589c-0.17321,0.1279 -0.34383,0.25959 -0.51997,0.38393c-0.08773,0.06194 -0.19574,0.0986 -0.27558,0.16803c-0.21591,0.18736 -0.44114,0.35407 -0.70367,0.47355c-0.14654,0.06676 -0.29675,0.12668 -0.44107,0.19522c-0.40128,0.19026 -0.819,0.29731 -1.25795,0.3459c-0.16952,0.01908 -0.31863,-0.04066 -0.47728,-0.06334c-0.18767,-0.0271 -0.38012,-0.1037 -0.56518,0.01462c-0.11139,0.07128 -0.2236,0.14136 -0.3317,0.21746c-0.37253,0.26303 -0.74007,0.533 -1.11578,0.79139c-0.36555,0.25144 -0.7472,0.48005 -1.10547,0.74142c-0.27579,0.20099 -0.58984,0.34707 -0.83682,0.58949c-0.04129,0.04083 -0.1067,0.05596 -0.15787,0.08788c-0.14236,0.08915 -0.30965,0.15696 -0.41823,0.27708c-0.15736,0.17439 -0.3372,0.30959 -0.52874,0.43689c-0.14603,0.09671 -0.29082,0.19561 -0.43385,0.29709c-0.20809,0.14743 -0.41846,0.29264 -0.61998,0.44896c-0.20748,0.1609 -0.40897,0.32983 -0.60618,0.50316c-0.07249,0.06391 -0.11515,0.14303 -0.04627,0.25127c0.06098,0.0952 0.09354,0.20829 0.13948,0.31326c0.16945,0.38671 0.32226,0.78049 0.61616,1.10063c0.32528,0.35425 0.63997,0.71296 1.13526,0.83925c0.36607,0.0931 0.7337,0.14044 1.10069,0.03268c0.36889,-0.1083 0.73229,-0.23683 1.07086,-0.42465c0.21207,-0.11758 0.42915,-0.22671 0.63557,-0.35331c0.14387,-0.08842 0.27542,-0.19746 0.40922,-0.30173c0.176,-0.13713 0.36396,-0.26374 0.51995,-0.42129c0.44652,-0.45117 0.94074,-0.85691 1.32083,-1.37355c0.16029,-0.21779 0.35451,-0.41029 0.51643,-0.62718c0.2427,-0.32484 0.46972,-0.66118 0.70467,-0.99183c0.23438,-0.33001 0.46921,-0.66008 0.70592,-0.98889c0.18938,-0.26317 0.38366,-0.52287 0.57049,-0.78757c0.03905,-0.0552 0.05519,-0.12657 0.08148,-0.19048c0.08155,-0.05065 0.16522,-0.1078 0.21755,-0.18571c0.17297,-0.25726 0.33405,-0.52231 0.50003,-0.78389c0.09456,-0.14841 0.17411,-0.3103 0.28917,-0.4409c0.23766,-0.26938 0.36588,-0.59808 0.53319,-0.90576c0.0276,-0.05016 0.04228,-0.1074 0.07571,-0.19487zM240.39253,172.69765c-0.21181,0.03737 -0.423,0.0276 -0.63498,0.01963c-0.2022,-0.00733 -0.40288,0.00123 -0.599,0.06196c-0.14084,0.04368 -0.28303,0.08651 -0.42757,0.11555c-0.18498,0.03747 -0.37278,0.06046 -0.55981,0.09049c-0.29815,0.04811 -0.59642,0.09605 -0.89443,0.14583c-0.04629,0.00763 -0.09257,0.02157 -0.13675,0.03785c-0.16972,0.0624 -0.33669,0.13326 -0.50845,0.18897c-0.13869,0.04499 -0.28445,0.06779 -0.42439,0.10984c-0.09666,0.0289 -0.1861,0.08166 -0.28288,0.10964c-0.45295,0.13162 -0.89074,0.30945 -1.35194,0.41716c-0.30587,0.07156 -0.60529,0.17584 -0.90229,0.27997c-0.34895,0.1227 -0.7163,0.19333 -1.03976,0.39255c-0.182,0.11244 -0.38361,0.20394 -0.58825,0.26696c-0.26458,0.08174 -0.47637,0.24962 -0.70353,0.38837c-0.23216,0.1414 -0.43498,0.33018 -0.65435,0.49364c-0.24872,0.18554 -0.50991,0.35762 -0.70726,0.60174c-0.15229,0.1881 -0.33261,0.36806 -0.42855,0.58357c-0.17582,0.39429 -0.30484,0.81165 -0.33811,1.24719c-0.0118,0.15425 -0.0498,0.31856 0.0574,0.46627c0.02655,0.03665 0.01334,0.10603 0.00983,0.15967c-0.02052,0.33518 0.06718,0.63658 0.26788,0.90676c0.09548,0.1287 0.19845,0.25581 0.26755,0.39874c0.09485,0.19654 0.24287,0.33858 0.40416,0.47232c0.07022,0.05808 0.1566,0.0925 0.24621,0.05402c0.14008,-0.06033 0.28101,-0.122 0.41211,-0.19917c0.43069,-0.25403 0.82915,-0.56228 1.29066,-0.7649c0.03061,-0.01359 0.05648,-0.03782 0.08508,-0.05584c0.34884,-0.22009 0.69827,-0.43931 1.04635,-0.66014c0.05737,-0.03615 0.11003,-0.07919 0.1651,-0.11908c0.10877,-0.07808 0.21624,-0.15805 0.32713,-0.23303c0.0784,-0.05304 0.16321,-0.09633 0.24196,-0.14885c0.19596,-0.13081 0.37335,-0.28808 0.59077,-0.38785c0.09625,-0.04428 0.18017,-0.11549 0.27055,-0.17317c0.20436,-0.12923 0.4072,-0.2607 0.61416,-0.3854c0.12723,-0.07655 0.25816,-0.1488 0.39266,-0.21138c0.12248,-0.05689 0.22141,-0.19188 0.38589,-0.12925c0.01318,0.00488 0.03721,-0.01355 0.05432,-0.02397c0.21297,-0.13031 0.42547,-0.26131 0.62688,-0.38525c-0.03649,-0.15434 -0.08243,-0.29036 -0.09828,-0.43001c-0.01633,-0.14589 0.00442,-0.29591 -0.00596,-0.44308c-0.01473,-0.20455 0.04816,-0.39748 0.14582,-0.55836c0.13484,-0.22289 0.29654,-0.44341 0.49295,-0.61165c0.41103,-0.35194 0.85124,-0.67004 1.28137,-0.99993c0.10619,-0.08111 0.21731,-0.15575 0.32972,-0.22849c0.14697,-0.09534 0.31189,-0.16884 0.44328,-0.28181c0.25751,-0.22184 0.52948,-0.4177 0.83677,-0.5781zM238.59814,182.37876c0.11764,-0.09651 0.21891,-0.1826 0.3233,-0.2645c0.46887,-0.3667 0.93809,-0.73289 1.40837,-1.09753c0.15462,-0.12 0.16392,-0.18291 0.07197,-0.35744c-0.16794,-0.31907 -0.39031,-0.59843 -0.61132,-0.88024c-0.1127,-0.14319 -0.20677,-0.30088 -0.31918,-0.44401c-0.10391,-0.13253 -0.22135,-0.25532 -0.33259,-0.38233c-0.10937,-0.12501 -0.21846,-0.24997 -0.33128,-0.37894c-0.21833,0.16276 -0.4126,0.31489 -0.61494,0.45486c-0.10994,0.07636 -0.24128,0.12213 -0.35035,0.1994c-0.18054,0.12862 -0.35316,0.26848 -0.52437,0.40891c-0.11305,0.09287 -0.21808,0.19491 -0.34215,0.30641c0.14545,0.19152 0.2833,0.36525 0.41227,0.54556c0.12138,0.16958 0.25792,0.33436 0.34151,0.52218c0.08341,0.18718 0.18599,0.35622 0.3042,0.52115c0.0866,0.12087 0.1604,0.25074 0.2431,0.37478c0.10018,0.15073 0.20363,0.29924 0.32145,0.47175zM225.0145,194.35521c0.13223,-0.19787 0.08145,-0.40457 0.02686,-0.58947c-0.09522,-0.32202 -0.21732,-0.63756 -0.34831,-0.94727c-0.23549,-0.55622 -0.56868,-1.05403 -0.93332,-1.53466c-0.26027,-0.34336 -0.59464,-0.60556 -0.90866,-0.88898c-0.17287,-0.15587 -0.39445,-0.25702 -0.58368,-0.39692c-0.13086,-0.09696 -0.27961,-0.11882 -0.45926,-0.16781c0.01252,0.22424 0.01519,0.43072 0.03836,0.63506c0.0156,0.13781 0.0744,0.27085 0.08896,0.40861c0.03605,0.34148 0.16364,0.65175 0.30035,0.96059c0.04569,0.10312 0.07655,0.21484 0.13596,0.30884c0.17964,0.28482 0.3893,0.54963 0.58196,0.82505c0.24997,0.35822 0.55886,0.63303 0.92889,0.85169c0.14746,0.08688 0.29021,0.18203 0.44146,0.26152c0.21838,0.11494 0.43467,0.23864 0.69044,0.27376zM241.55043,183.37015c-0.01396,-0.32652 -0.08477,-0.64755 -0.21363,-0.9423c-0.15923,-0.36288 -0.36963,-0.70345 -0.55741,-1.05416c-0.04719,-0.08795 -0.12347,-0.11867 -0.20267,-0.06533c-0.17838,0.12032 -0.38627,0.20374 -0.52164,0.37927c-0.103,0.13347 -0.24171,0.21281 -0.38124,0.29574c-0.06267,0.03725 -0.12404,0.07715 -0.18372,0.11917c-0.19272,0.13593 -0.38591,0.27116 -0.57564,0.4111c-0.0671,0.04962 -0.12463,0.11214 -0.19258,0.17421c0.0827,0.13919 0.14586,0.25865 0.22097,0.37046c0.20031,0.29771 0.36646,0.61194 0.49722,0.94681c0.07443,0.19104 0.14687,0.38951 0.33999,0.52549c0.29189,-0.20846 0.61561,-0.36442 0.87596,-0.61647c0.06991,-0.06769 0.16319,-0.11373 0.25045,-0.16046c0.21913,-0.11685 0.45832,-0.19917 0.64396,-0.38353zM237.28551,177.04572c-0.25838,0.13406 -0.50414,0.25925 -0.74735,0.38926c-0.22505,0.12039 -0.42312,0.27991 -0.67221,0.37026c-0.2104,0.07604 -0.42616,0.18932 -0.58652,0.3852c0.04158,0.04129 0.07341,0.10009 0.11772,0.11173c0.13508,0.03474 0.20628,0.13936 0.30104,0.22487c0.31453,0.28307 0.60752,0.58338 0.85691,0.92559c0.04957,0.06814 0.12204,0.1199 0.19376,0.18831c0.30223,-0.24102 0.58763,-0.47635 0.88184,-0.70028c0.29707,-0.22639 0.60242,-0.44176 0.91078,-0.66677c-0.1993,-0.22266 -0.37371,-0.42848 -0.56043,-0.62312c-0.11603,-0.12072 -0.23797,-0.2475 -0.38183,-0.328c-0.12023,-0.06735 -0.21756,-0.14479 -0.31372,-0.27706zM229.32344,194.44802c-0.04752,-0.12762 -0.07561,-0.22382 -0.1179,-0.31309c-0.09295,-0.19708 -0.0787,-0.41612 -0.05914,-0.61077c0.03522,-0.34951 0.26172,-0.62895 0.48169,-0.89281c0.17038,-0.20449 0.42569,-0.28242 0.66534,-0.37516c0.11896,-0.04615 0.2439,-0.11533 0.36371,-0.11107c0.18524,0.00654 0.37149,0.05632 0.55197,0.10651c0.24191,0.06731 0.4084,0.25304 0.59742,0.40521c0.23506,0.18889 0.38573,0.42759 0.48308,0.71837c0.17647,-0.07433 0.35397,-0.14936 0.52296,-0.2206c-0.02561,-0.10699 -0.05491,-0.18317 -0.06012,-0.26066c-0.01299,-0.19867 -0.09002,-0.3743 -0.18685,-0.54046c-0.1273,-0.2178 -0.32166,-0.37667 -0.52137,-0.52305c-0.21062,-0.15458 -0.44307,-0.26572 -0.70819,-0.30455c-0.56187,-0.08182 -1.07937,0.0891 -1.59637,0.26851c-0.01233,0.00413 -0.02415,0.01195 -0.03365,0.02097c-0.10279,0.09571 -0.20821,0.18867 -0.30667,0.28849c-0.11379,0.11509 -0.21641,0.24098 -0.33254,0.35337c-0.47326,0.45934 -0.55769,1.04141 -0.53064,1.65769c0.00805,0.18109 0.0999,0.32666 0.24616,0.45652c0.16116,-0.03686 0.33126,-0.07578 0.54111,-0.12342zM231.97439,193.52106c-0.04704,-0.06887 -0.08965,-0.1039 -0.09572,-0.14494c-0.03586,-0.23253 -0.18729,-0.38437 -0.35949,-0.51672c-0.11095,-0.08556 -0.23753,-0.1511 -0.35783,-0.22446c-0.14581,-0.08927 -0.30903,-0.13306 -0.47505,-0.12218c-0.1024,0.00682 -0.19876,0.07718 -0.30137,0.10586c-0.33799,0.09476 -0.54145,0.35063 -0.7099,0.6245c-0.21223,0.34543 -0.14969,0.71831 -0.04702,1.10594c0.83647,-0.15195 1.57495,-0.51318 2.34638,-0.828z" fill="#30419a"/><g fill="#30419a"><path d="M229.59913,181.81998c0.19813,0.10378 0.22765,0.15734 0.20094,0.33818c-0.00404,0.02624 -0.0064,0.0531 -0.01177,0.07924c-0.03973,0.19579 -0.16037,0.26683 -0.3465,0.20688c-0.0877,-0.02822 -0.15708,-0.07324 -0.17305,-0.17241c-0.01856,-0.11256 -0.00561,-0.21634 0.09379,-0.28928c0.07559,-0.05567 0.15465,-0.10664 0.2366,-0.16261z"/><path d="M232.09696,185.84964c0.0603,-0.14016 0.01427,-0.26375 0.13726,-0.3576c0.09145,-0.06979 0.18465,-0.11854 0.26976,-0.07341c0.07772,0.04134 0.1256,0.14397 0.17718,0.22539c0.01084,0.01734 -0.0091,0.0754 -0.03104,0.08912c-0.10744,0.06783 -0.21521,0.14219 -0.33336,0.1825c-0.05311,0.01835 -0.13175,-0.03727 -0.2198,-0.066z"/><path d="M234.2292,189.77729c-0.00917,-0.14725 0.07832,-0.23983 0.16693,-0.33191c0.06516,-0.06799 0.15891,-0.12444 0.2283,-0.06277c0.05905,0.05208 0.0989,0.1655 0.09078,0.24603c-0.02126,0.21323 -0.13113,0.27009 -0.3377,0.20313c-0.04963,-0.0161 -0.09808,-0.03602 -0.14831,-0.05449z"/></g></g><g><g><path d="M242.59046,174.69462c1.1028,-0.86509 0.64083,-0.15744 1.98445,-0.34724c1.3435,-0.18997 1.0017,0.17276 1.71779,-0.99679c0.71609,-1.16955 0.86721,-1.09653 2.21153,-1.91374c1.3442,-0.81737 3.39038,-1.10603 3.39038,-1.10603l2.05708,-0.77507l2.4379,-1.23667l1.88554,-0.75082c0,0 -0.09287,-0.24687 -2.56233,1.83041c-2.46946,2.07728 -1.69782,1.85222 -3.40977,3.95065c-1.71212,2.09856 -3.27772,2.67125 -3.71589,2.76905c-0.43812,0.09751 -1.22766,0.41207 -1.44234,1.36311c-0.21479,0.95088 -0.37416,0.68428 -0.50719,1.2536c-0.13303,0.56932 -1.38348,1.44891 -1.38348,1.44891c0,0 -0.76607,0.43764 -1.59731,0.3603c-0.83107,-0.07746 -1.25836,-0.40067 -1.78801,-0.76986c-0.52982,-0.36907 -1.05403,-1.87589 -1.05403,-1.87589c-0.70108,-2.39419 0.67305,-2.33896 1.77568,-3.20393z" fill="#f7ec1e"/><path d="M242.34482,178.0316l-0.04396,-0.61886l0.19857,-0.89182l1.70603,-1.01401l1.21462,-0.47663l1.38611,-0.66951l3.0901,-1.24255l-1.60635,1.64051l-1.42456,1.42647l-1.34208,1.54687l-1.18795,0.8114l-0.98747,0.0695l-1.00305,-0.58137" fill="#fbf5a8"/></g><g fill="#30419a"><path d="M255.21793,170.07222c-0.36508,0.25213 -0.59526,0.47146 -0.80319,0.71599c-0.21084,0.24803 -0.42687,0.49103 -0.63771,0.73906c-0.03368,0.03941 -0.04873,0.09464 -0.07878,0.13788c-0.12263,0.17718 -0.25179,0.34998 -0.37087,0.52903c-0.11631,0.17387 -0.21642,0.35814 -0.336,0.52945c-0.10655,0.15231 -0.22953,0.29311 -0.34621,0.43871c-0.10522,0.1317 -0.21026,0.26329 -0.31652,0.3942c-0.20791,0.25638 -0.4143,0.5135 -0.6249,0.76742c-0.21521,0.26011 -0.45119,0.49905 -0.73094,0.69164c-0.08889,0.06097 -0.18148,0.11764 -0.2665,0.18354c-0.17623,0.13678 -0.34378,0.2848 -0.52448,0.41504c-0.09706,0.07008 -0.21551,0.11033 -0.32178,0.16802c-0.18951,0.10293 -0.37132,0.22155 -0.56759,0.3094c-0.14287,0.064 -0.2902,0.12777 -0.45423,0.14083c-0.0984,0.00787 -0.19411,0.0485 -0.29047,0.07746c-0.03152,0.00966 -0.0592,0.03791 -0.08999,0.04051c-0.20447,0.0167 -0.35964,0.13884 -0.53287,0.22938c-0.21864,0.11424 -0.3429,0.27536 -0.40156,0.51515c-0.07841,0.31993 -0.18285,0.6339 -0.28365,0.94766c-0.02822,0.0877 -0.08343,0.16656 -0.12627,0.24985c-0.12298,0.23877 -0.21867,0.49754 -0.37512,0.7117c-0.18966,0.25907 -0.42999,0.48129 -0.64939,0.71825c-0.0508,0.05464 -0.11473,0.09856 -0.15789,0.15809c-0.15848,0.21858 -0.38858,0.32752 -0.62684,0.42966c-0.1467,0.06283 -0.28723,0.13988 -0.4325,0.20628c-0.06587,0.03035 -0.13424,0.06038 -0.20476,0.0732c-0.2324,0.04234 -0.46528,0.08399 -0.69976,0.11109c-0.14652,0.01726 -0.29695,0.01548 -0.44501,0.00905c-0.1612,-0.00756 -0.32179,-0.03825 -0.48326,-0.04436c-0.18201,-0.00698 -0.34595,-0.06291 -0.49917,-0.15267c-0.19787,-0.11633 -0.39928,-0.22897 -0.58451,-0.36302c-0.15684,-0.11355 -0.29306,-0.25532 -0.43833,-0.38485c-0.00473,-0.00434 -0.00543,-0.01497 -0.01031,-0.01694c-0.16835,-0.07236 -0.20165,-0.2261 -0.24815,-0.38143c-0.03028,-0.10051 -0.09072,-0.19936 -0.16066,-0.27884c-0.12945,-0.14665 -0.19105,-0.32297 -0.25631,-0.49983c-0.00931,-0.02546 -0.0173,-0.05231 -0.0331,-0.07359c-0.22757,-0.3099 -0.27195,-0.67725 -0.32866,-1.04123c-0.01652,-0.10663 -0.04049,-0.21195 -0.0584,-0.31839c-0.09753,-0.57899 0.06008,-1.08608 0.45914,-1.51064c0.18864,-0.20105 0.39129,-0.39527 0.61351,-0.55639c0.32628,-0.23649 0.66869,-0.45269 1.01833,-0.65312c0.21351,-0.12286 0.4525,-0.20176 0.68202,-0.29565c0.0483,-0.01986 0.10502,-0.02073 0.1585,-0.02671c0.16836,-0.01855 0.33667,-0.0368 0.50513,-0.05263c0.07371,-0.00742 0.14866,-0.01746 0.22204,-0.01279c0.20846,0.01391 0.41742,0.02671 0.62408,0.05498c0.29336,0.04025 0.58016,-0.00415 0.86858,-0.04284c0.13991,-0.01881 0.20401,-0.12495 0.27113,-0.22407c0.04517,-0.0662 0.0797,-0.14281 0.1051,-0.21949c0.21749,-0.66413 0.62949,-1.18211 1.17569,-1.60971c0.32154,-0.25193 0.65549,-0.47422 1.02339,-0.65532c0.22913,-0.11257 0.43632,-0.27277 0.68386,-0.35246c0.52584,-0.1698 1.03152,-0.3998 1.58004,-0.50277c0.41163,-0.07714 0.81598,-0.18971 1.22467,-0.28226c0.49083,-0.11053 0.95619,-0.28977 1.41923,-0.4861c0.49417,-0.20952 0.98307,-0.42453 1.45417,-0.6852c0.32552,-0.17992 0.67577,-0.31588 1.01476,-0.47167c0.04913,-0.0227 0.09761,-0.04672 0.14462,-0.07328c0.09896,-0.05547 0.19477,-0.11814 0.2965,-0.16919c0.55816,-0.27923 1.11979,-0.553 1.6764,-0.83522c0.16917,-0.08575 0.32769,-0.19302 0.49089,-0.29009c0.02349,-0.01403 0.04622,-0.02955 0.07056,-0.04087c0.14991,-0.07033 0.2946,-0.04518 0.36613,0.06251c0.06389,0.09649 0.03309,0.23291 -0.09423,0.3378c-0.32993,0.2718 -0.66038,0.54321 -0.99841,0.80464c-0.45108,0.34875 -0.91002,0.68822 -1.3655,1.03164c-0.3303,0.24908 -0.66071,0.49874 -0.89364,0.6745zM256.92763,168.27805c-0.00779,-0.01437 -0.01576,-0.02862 -0.02349,-0.04253c-0.16758,0.0829 -0.33582,0.16448 -0.50222,0.24986c-0.25293,0.12984 -0.50202,0.2679 -0.75743,0.39261c-0.35975,0.17528 -0.72508,0.3387 -1.08508,0.51288c-0.23191,0.11219 -0.45408,0.24677 -0.68944,0.35021c-0.45915,0.20201 -0.92095,0.39977 -1.38939,0.57858c-0.27755,0.106 -0.56679,0.18489 -0.85609,0.25372c-0.36687,0.08722 -0.74566,0.12855 -1.1072,0.23208c-0.45176,0.12929 -0.89445,0.2933 -1.33488,0.45803c-0.53977,0.20153 -1.04477,0.47172 -1.52285,0.79573c-0.41512,0.28126 -0.73066,0.65029 -1.0057,1.0616c-0.04789,0.07184 -0.11896,0.13377 -0.14838,0.21194c-0.10761,0.28382 -0.21474,0.56428 -0.38808,0.81953c-0.06832,0.1007 -0.13757,0.19597 -0.24183,0.23259c-0.16894,0.05984 -0.34853,0.09338 -0.52607,0.124c-0.11105,0.01929 -0.22669,0.01521 -0.34071,0.01759c-0.07354,0.00175 -0.14964,0.00752 -0.22025,-0.00863c-0.31023,-0.07013 -0.62715,-0.03546 -0.9402,-0.06276c-0.38361,-0.03339 -0.73889,0.11812 -1.09057,0.25531c-0.03725,0.01459 -0.06939,0.04184 -0.10338,0.06379c-0.16547,0.10595 -0.33025,0.21219 -0.49538,0.3179c-0.295,0.18912 -0.59344,0.37099 -0.84221,0.62448c-0.27513,0.28033 -0.45623,0.60626 -0.47256,1.00044c-0.00797,0.19683 0.02073,0.39891 0.06061,0.59259c0.05419,0.26269 0.12749,0.52268 0.20746,0.77912c0.0639,0.20556 0.14774,0.40558 0.22875,0.60551c0.02742,0.06787 0.07206,0.12879 0.11024,0.19209c0.08961,0.14709 0.24243,0.25809 0.25178,0.45217c0.00141,0.02757 0.03408,0.05802 0.05895,0.07891c0.21191,0.17718 0.40102,0.38382 0.66001,0.49981c0.04179,0.01867 0.07234,0.06118 0.11273,0.08409c0.17495,0.09941 0.34221,0.24447 0.53045,0.28128c0.29517,0.05769 0.60661,0.07044 0.90779,0.05006c0.51112,-0.03425 0.98023,-0.23019 1.43202,-0.46479c0.03605,-0.01856 0.07095,-0.04139 0.10107,-0.06828c0.37451,-0.33407 0.73098,-0.68308 0.99496,-1.11688c0.14082,-0.23151 0.27154,-0.46598 0.33999,-0.72987c0.07927,-0.30536 0.15424,-0.61183 0.23802,-0.9165c0.05257,-0.18992 0.1193,-0.38649 0.28023,-0.50575c0.20887,-0.15554 0.37597,-0.37925 0.65157,-0.43671c0.01812,-0.00379 0.03152,-0.02557 0.04952,-0.03433c0.08392,-0.04015 0.1656,-0.08988 0.25385,-0.11556c0.20065,-0.05852 0.40627,-0.10126 0.60734,-0.15805c0.14147,-0.03981 0.27937,-0.0926 0.41844,-0.14037c0.25266,-0.08698 0.47323,-0.23056 0.68901,-0.383c0.35142,-0.2481 0.71119,-0.47843 1.02409,-0.7833c0.40357,-0.39355 0.74645,-0.83529 1.10362,-1.26609c0.4318,-0.52115 0.80109,-1.08798 1.17138,-1.65373c0.08078,-0.12385 0.16464,-0.24728 0.26071,-0.3591c0.11862,-0.13833 0.25796,-0.25926 0.37721,-0.39702c0.25289,-0.29291 0.49954,-0.59091 0.81178,-0.82614c0.19509,-0.14688 0.38981,-0.29503 0.57926,-0.44943c0.10791,-0.08784 0.23537,-0.15925 0.2804,-0.30994c0.01165,-0.03876 0.06336,-0.06878 0.10104,-0.09679c0.21307,-0.15715 0.42567,-0.31498 0.64179,-0.4684c0.18038,-0.12775 0.36481,-0.24993 0.54731,-0.37458z"/><path d="M243.37142,175.70087c0.20505,-0.15041 0.44689,-0.22292 0.67015,-0.33299c0.29617,-0.14675 0.60117,-0.23362 0.91873,-0.29878c0.05233,-0.011 0.10415,-0.03124 0.15257,-0.05498c0.37847,-0.18225 0.76561,-0.34997 1.13232,-0.55424c0.57591,-0.32014 1.21142,-0.50904 1.78569,-0.83159c0.14585,-0.0822 0.31221,-0.13472 0.47504,-0.17802c0.37264,-0.09874 0.70088,-0.29465 1.03083,-0.47734c0.53398,-0.29503 1.04932,-0.62253 1.5725,-0.9367c0.02936,-0.01727 0.05783,-0.03621 0.08849,-0.05009c0.0859,-0.03873 0.16202,-0.02229 0.21317,0.0574c0.05243,0.08083 0.0353,0.16147 -0.04002,0.21569c-0.13235,0.09494 -0.2675,0.18725 -0.40797,0.26956c-0.58455,0.34371 -1.09989,0.76437 -1.51426,1.30771c-0.15547,0.20415 -0.33699,0.38974 -0.51632,0.57484c-0.26891,0.2776 -0.54279,0.55051 -0.82128,0.81925c-0.31196,0.30144 -0.6317,0.59482 -0.94658,0.89346c-0.05356,0.05097 -0.10696,0.10512 -0.14698,0.16704c-0.3071,0.47638 -0.69101,0.88984 -1.097,1.27873c-0.30284,0.28966 -0.63366,0.55349 -0.97226,0.80041c-0.20988,0.15295 -0.44566,0.29606 -0.69167,0.3684c-0.39512,0.11611 -0.80737,0.18458 -1.20919,-0.01336c-0.08955,-0.04387 -0.19588,-0.05279 -0.29009,-0.08869c-0.07434,-0.02825 -0.15916,-0.05818 -0.20907,-0.11424c-0.16614,-0.18446 -0.36046,-0.35623 -0.42586,-0.60723c-0.09334,-0.36067 -0.16347,-0.73468 0.02318,-1.08133c0.12683,-0.2361 0.30698,-0.4455 0.52562,-0.6115c0.23177,-0.17598 0.46653,-0.34794 0.70024,-0.52145zM249.26355,173.55922c-0.0115,-0.01462 -0.02312,-0.02941 -0.03461,-0.04402c-0.02351,0.00772 -0.04872,0.01333 -0.07086,0.02416c-0.29991,0.14349 -0.59721,0.29302 -0.90019,0.43054c-0.31449,0.14284 -0.63592,0.27073 -0.95147,0.41128c-0.37764,0.16831 -0.75198,0.34294 -1.12814,0.51452c-0.41874,0.19057 -0.82349,0.41753 -1.28807,0.4859c-0.03273,0.00494 -0.06412,0.02183 -0.0952,0.03473c-0.26221,0.10739 -0.52441,0.21477 -0.78592,0.32319c-0.04311,0.01783 -0.08597,0.03827 -0.12542,0.06294c-0.30877,0.19373 -0.62511,0.37343 -0.90909,0.60678c-0.27848,0.22884 -0.46778,0.49397 -0.51388,0.85899c-0.0399,0.31458 0.15321,0.54222 0.27564,0.79466c0.04446,0.09133 0.12657,0.19381 0.21584,0.22803c0.23278,0.0887 0.47631,0.18722 0.71972,0.19871c0.27194,0.01296 0.55197,-0.05281 0.7781,-0.24185c0.02882,-0.02398 0.07071,-0.03214 0.10645,-0.04746c0.06135,-0.02625 0.13197,-0.04115 0.18224,-0.08104c0.15894,-0.12624 0.30885,-0.26422 0.46562,-0.39327c0.17676,-0.14598 0.37563,-0.26995 0.53311,-0.43456c0.36547,-0.38168 0.74061,-0.75733 1.02177,-1.21144c0.0422,-0.06796 0.10192,-0.12692 0.16121,-0.18207c0.19403,-0.17949 0.39735,-0.34942 0.58646,-0.53388c0.38336,-0.37471 0.76339,-0.75319 1.13868,-1.13602c0.212,-0.21676 0.41229,-0.44547 0.61803,-0.6688z"/></g><g><path d="M253.19938,177.80676l0.06815,-0.39927l0.23648,-0.33801l0.85048,-0.4549l0.98781,-0.06974l0.66108,0.22892l0.38735,0.56712l0.2333,0.74783l-0.13319,0.54469l0.30615,0.22643l0.51306,0.75117l0.01868,1.09641l-0.31742,0.72077l-0.66009,0.45085l-0.79719,0.04053l-0.55334,-0.4035l-0.33573,0.50654l-0.62295,0.12301l-0.75982,-0.26222l-0.44388,-0.90901l-0.08804,-0.79428l-0.2888,0.02077l-0.69725,-0.35545l-0.18165,-0.78311l0.34435,-0.78966l0.6198,-0.42334l0.65265,-0.04255" fill="#ffffff"/><path d="M256.70623,178.56355c0.42148,0.1868 0.59609,0.57478 0.80545,0.9264c0.2234,0.37587 0.19872,0.77852 0.06282,1.17988c-0.04774,0.14118 -0.10738,0.27861 -0.15686,0.41947c-0.23033,0.65421 -0.73787,0.94507 -1.38398,1.03971c-0.17199,0.02506 -0.35457,0.01873 -0.52663,-0.00842c-0.15619,-0.02462 -0.30441,-0.09709 -0.4832,-0.15777c-0.06337,0.05212 -0.15375,0.13051 -0.24817,0.20334c-0.17986,0.1385 -0.38251,0.18779 -0.61048,0.17711c-0.30336,-0.01423 -0.59225,-0.05829 -0.85046,-0.23339c-0.3282,-0.22248 -0.55215,-0.51895 -0.62904,-0.90878c-0.04926,-0.25141 -0.06788,-0.5086 -0.1029,-0.78388c-0.06968,-0.00517 -0.14914,-0.01024 -0.22885,-0.01715c-0.54756,-0.04867 -0.94972,-0.52362 -0.91306,-1.07433c0.01963,-0.29064 0.0435,-0.57508 0.15023,-0.85577c0.18552,-0.48878 0.81664,-0.85673 1.3054,-0.78582c0.0457,0.00666 0.09176,0.00903 0.15503,0.0148c0.0074,-0.09267 0.01189,-0.17223 0.02077,-0.25127c0.01628,-0.14695 0.06762,-0.2762 0.19279,-0.36649c0.33673,-0.24262 0.68414,-0.46703 1.07254,-0.61996c0.23888,-0.09423 0.48635,-0.12338 0.73967,-0.08002c0.25349,0.04324 0.5096,0.07813 0.75839,0.13998c0.29953,0.07442 0.51814,0.25586 0.63175,0.55269c0.06059,0.15783 0.14162,0.30826 0.19708,0.46782c0.1151,0.33117 0.17615,0.66896 0.04173,1.02184zM253.17142,181.49422c0.18105,0.32829 0.56779,0.51154 0.89173,0.50969c0.03394,-0.00021 0.06774,0.00196 0.1017,0.00325c0.38688,0.01526 0.60557,-0.16618 0.66273,-0.55012c0.01865,-0.1261 0.07679,-0.19106 0.17128,-0.19172c0.09258,-0.00087 0.15634,0.0644 0.18176,0.18515c0.04497,0.21445 0.13293,0.31217 0.33692,0.34024c0.2783,0.03816 0.558,0.03623 0.82365,-0.0687c0.3459,-0.13678 0.63253,-0.34038 0.75354,-0.71844c0.04536,-0.14208 0.10529,-0.27946 0.15773,-0.4193c0.14861,-0.39717 0.11428,-0.77088 -0.13841,-1.11866c-0.09169,-0.12648 -0.1667,-0.26588 -0.26778,-0.38318c-0.06802,-0.07852 -0.16056,-0.15191 -0.25664,-0.18425c-0.05706,-0.01885 -0.14486,0.04188 -0.21474,0.07522c-0.10785,0.0517 -0.20534,0.04204 -0.25466,-0.03386c-0.04895,-0.07463 -0.02892,-0.17542 0.07022,-0.24616c0.23636,-0.16851 0.27039,-0.40889 0.25324,-0.6691c-0.00314,-0.0534 -0.01418,-0.10873 -0.03324,-0.15883c-0.09071,-0.24001 -0.18558,-0.47871 -0.27865,-0.71812c-0.05288,-0.13583 -0.15482,-0.21668 -0.28681,-0.2702c-0.35263,-0.14292 -0.72348,-0.17317 -1.09741,-0.17353c-0.09854,-0.00011 -0.20103,0.0343 -0.29519,0.06982c-0.34621,0.13042 -0.65386,0.33096 -0.94912,0.54854c-0.05191,0.03823 -0.08592,0.11928 -0.09928,0.18623c-0.02239,0.1125 -0.01847,0.2295 -0.03077,0.3442c-0.01661,0.15349 -0.09074,0.21574 -0.24344,0.20288c-0.08087,-0.00713 -0.16098,-0.02387 -0.24134,-0.03765c-0.35633,-0.06036 -0.83179,0.18763 -0.98739,0.57088c-0.10366,0.25486 -0.10796,0.51509 -0.13035,0.77731c-0.02274,0.2665 0.12342,0.4646 0.31529,0.60245c0.18499,0.13295 0.4082,0.16809 0.62568,0.01703c0.09715,-0.06736 0.20728,-0.00852 0.22912,0.10811c0.0072,0.03901 -0.00464,0.08119 -0.00182,0.12117c0.0177,0.28357 0.03413,0.5675 0.05703,0.85055c0.01413,0.16633 0.07261,0.31702 0.17542,0.42909z" fill="#30419a"/></g><g><path d="M240.48459,168.95025l-0.40416,0.03669l-0.41749,-0.13069l-0.35208,-0.51547l-0.10097,-0.81322l0.31767,-0.56995l0.64434,-0.31385l0.59397,-0.12846l0.03057,-0.67608l0.57519,-0.5441l0.81233,-0.25236l0.71976,0.31483l0.59855,0.87633l0.11593,1.13048l-0.34035,0.61069l0.3223,0.25858l0.06735,0.5337l-0.27093,0.63876l-0.61277,0.54453l-0.63999,0.13465l-0.82869,-0.21518l-0.44318,-0.35275l-0.38735,-0.56712" fill="#ffffff"/><path d="M240.41181,169.17417c-0.22006,0.05487 -0.45867,-0.00208 -0.69826,-0.049c-0.13991,-0.0274 -0.23927,-0.10597 -0.33239,-0.21457c-0.29263,-0.3412 -0.38672,-0.75287 -0.37089,-1.17625c0.01412,-0.38559 0.15216,-0.74574 0.5038,-0.97355c0.13601,-0.0881 0.27782,-0.1688 0.42233,-0.2415c0.20305,-0.10157 0.41751,-0.1617 0.65838,-0.13433c-0.0053,-0.06506 -0.01996,-0.11943 -0.01215,-0.17046c0.02277,-0.14558 0.02164,-0.30766 0.08871,-0.432c0.24236,-0.44807 0.61271,-0.76087 1.1078,-0.8988c0.50587,-0.14101 1.18253,0.1111 1.48567,0.5383c0.19631,0.27595 0.38737,0.55347 0.50374,0.87873c0.20676,0.57811 0.07636,1.10398 -0.20805,1.63354c0.01376,0.02014 0.03545,0.06188 0.06618,0.09468c0.17215,0.18439 0.23879,0.40247 0.2298,0.65251c-0.01942,0.52051 -0.26923,0.91812 -0.66597,1.22925c-0.14755,0.11593 -0.31713,0.21181 -0.48932,0.28649c-0.23567,0.10188 -0.48786,0.11709 -0.73946,0.05185c-0.20323,-0.05283 -0.40844,-0.10228 -0.60839,-0.16694c-0.27366,-0.0883 -0.53933,-0.20149 -0.7058,-0.45187c-0.08759,-0.13231 -0.1477,-0.28315 -0.23575,-0.45606zM240.68245,169.02997c0.03775,0.05527 0.08601,0.09931 0.1013,0.15275c0.09628,0.33392 0.35533,0.48068 0.65563,0.57804c0.16756,0.05421 0.34156,0.08938 0.50952,0.14232c0.28321,0.08935 0.54937,0.05021 0.80513,-0.09064c0.24288,-0.13383 0.43856,-0.32126 0.59009,-0.55075c0.14329,-0.21679 0.19849,-0.46128 0.17397,-0.71898c-0.02567,-0.27232 -0.18191,-0.37871 -0.44776,-0.31806c-0.05929,0.01374 -0.12338,0.04412 -0.17747,0.03183c-0.05739,-0.01231 -0.13416,-0.05632 -0.14991,-0.10414c-0.01639,-0.04839 0.01881,-0.12773 0.05511,-0.1755c0.02884,-0.03762 0.09807,-0.04199 0.14203,-0.07226c0.14334,-0.09917 0.28351,-0.20299 0.42491,-0.30537c0.13435,-0.33819 0.23443,-0.67999 0.1332,-1.04815c-0.10649,-0.38805 -0.32115,-0.71712 -0.57432,-1.02014c-0.25158,-0.30032 -0.82044,-0.43821 -1.17853,-0.29007c-0.31463,0.13007 -0.5685,0.34209 -0.75133,0.6326c-0.07182,0.11369 -0.09865,0.23705 -0.07287,0.37018c0.03292,0.17092 0.05482,0.19005 0.23651,0.21542c0.03985,0.00586 0.08229,0.00995 0.11741,0.02736c0.11799,0.05853 0.13326,0.19732 0.03455,0.28494c-0.11532,0.1025 -0.30356,0.11745 -0.43639,0.04533c-0.06878,-0.03786 -0.1449,-0.0654 -0.22088,-0.08496c-0.27902,-0.07175 -0.5194,0.05355 -0.75819,0.16564c-0.34573,0.16216 -0.53162,0.45855 -0.55074,0.82054c-0.01874,0.34482 0.04053,0.69442 0.29629,0.96537c0.05186,0.05522 0.12581,0.0951 0.19664,0.12525c0.06089,0.02557 0.13227,0.02731 0.19892,0.03986c0.17473,0.03291 0.33748,0.01466 0.47943,-0.10578c0.02567,-0.02157 0.05454,-0.04028 0.08432,-0.05658c0.10041,-0.0552 0.18344,-0.04601 0.2368,0.0251c0.05489,0.0726 0.04094,0.15383 -0.04337,0.23186c-0.03422,0.03196 -0.07354,0.05831 -0.11,0.087z" fill="#30419a"/></g></g></g></g></svg>