<svg version="1.1" xmlns="http://www.w3.org/2000/svg" xmlns:xlink="http://www.w3.org/1999/xlink" width="46.31764" height="41.848" viewBox="0,0,46.31764,41.848"><g transform="translate(-195.81776,-328.64228)"><g data-paper-data="{&quot;isPaintingLayer&quot;:true}" fill="#f70606" fill-rule="nonzero" stroke="none" stroke-width="0.5" stroke-linecap="butt" stroke-linejoin="miter" stroke-miterlimit="10" stroke-dasharray="" stroke-dashoffset="0" style="mix-blend-mode: normal"><path d="M207.35152,342.66034c-0.77549,0 -0.77549,-0.77549 -0.77549,-0.77549v-1.13739c0.00029,-3.07109 -0.44082,-6.06327 -0.8212,-9.10627c0,0 -0.09619,-0.7695 0.67331,-0.86569c0.7695,-0.09619 0.86569,0.67331 0.86569,0.67331c0.38842,3.10738 0.83288,6.16225 0.83317,9.29865v1.13739c0,0 0,0.77549 -0.77549,0.77549z"/><path d="M211.83214,330.05311c-0.16249,0.75827 -0.92076,0.59579 -0.92076,0.59579l-1.3786,-0.29542c-1.65024,-0.37044 -3.31767,-0.13573 -4.88735,0.61758c-0.64015,0.30722 -1.70256,1.89292 -2.09101,2.32993c0,0 -0.51521,0.57961 -1.09481,0.0644c-0.57961,-0.51521 -0.0644,-1.09481 -0.0644,-1.09481c0.58581,-0.65904 1.61769,-2.19801 2.45851,-2.6332c1.88594,-0.97611 3.99037,-1.215 6.00404,-0.80045l1.3786,0.29542c0,0 0.75827,0.16249 0.59579,0.92076z"/><path d="M219.04746,333.16094c0.24523,0.73569 -0.49047,0.98092 -0.49047,0.98092l-0.30339,0.00522c-0.84531,0.8898 -1.6676,1.81309 -2.53276,2.68538c0.05766,0.15893 0.05766,0.29605 0.05766,0.29605c0,1.04686 -0.00033,2.09372 -0.00096,3.14058l-0.01421,0.0374l0.01133,0.00113l-0.15348,1.53475c-0.03474,0.39614 -0.36733,0.70685 -0.77249,0.70685c-0.36421,0 -0.66978,-0.25108 -0.75306,-0.58959l-0.39982,-1.48119l0.10021,-0.02705c-0.21022,-0.47647 -0.38589,-0.96537 -0.50441,-1.47033c-0.11044,-0.47057 -0.43583,-0.96464 -0.28112,-1.42257c0.20626,-0.61052 0.82742,-0.98851 1.25776,-1.46818c0.92319,-1.02902 1.90859,-2.00905 2.8609,-3.01148l0.93739,-0.40837c0,0 0.73569,-0.24523 0.98092,0.49047z"/><path d="M225.71029,340.49979c-0.68292,0.36744 -1.05035,-0.31548 -1.05035,-0.31548l-0.57253,-1.07015c-0.14277,-0.45186 -0.17283,-0.95647 -0.42831,-1.35558c-0.51726,-0.80805 -1.43671,-1.27204 -2.14663,-1.91743c0,0 -0.57382,-0.52165 -0.05217,-1.09546c0.52165,-0.57382 1.09546,-0.05217 1.09546,-0.05217c0.16367,0.14879 2.33134,2.10915 2.4029,2.21851c0.30678,0.46875 0.36841,1.05813 0.55261,1.58719l0.5145,0.95021c0,0 0.36744,0.68292 -0.31548,1.05035z"/><path d="M224.34737,346.07913c-0.67874,-0.3751 -0.30364,-1.05383 -0.30364,-1.05383l0.42341,-0.76298c0.75347,-1.89719 1.56769,-3.78087 2.26839,-5.69801c0.40989,-1.12148 0.95091,-2.30239 0.93379,-3.50375c0,0 0,-0.77549 0.77549,-0.77549c0.77549,0 0.77549,0.77549 0.77549,0.77549c-0.01492,1.41801 -0.54287,2.70872 -1.02804,4.03617c-0.71685,1.96135 -1.54853,3.88965 -2.32318,5.82897l-0.46788,0.8498c0,0 -0.3751,0.67874 -1.05383,0.30364z"/><path d="M203.78428,355.94703c0,0.77549 -0.77549,0.77549 -0.77549,0.77549l-0.04342,-0.0174c-1.02644,0.21912 -2.0033,0.57401 -2.98899,0.92192c-0.59884,1.74482 -1.34854,3.43682 -2.13751,5.01717l-0.54716,1.09433c0,0 -0.34681,0.69362 -1.04043,0.34681c-0.69362,-0.34681 -0.34681,-1.04043 -0.34681,-1.04043l0.54716,-1.09433c0.66374,-1.32537 1.30933,-2.74736 1.85091,-4.21697c-0.06561,-0.07497 -0.12286,-0.17303 -0.16538,-0.30057c-0.24523,-0.73569 0.49046,-0.98092 0.49046,-0.98092c0.04303,-0.01434 0.086,-0.02875 0.12894,-0.04323c0.60871,-1.92634 1.00185,-3.90758 0.99517,-5.83857c0,0 0,-0.77549 0.77549,-0.77549c0.77549,0 0.77549,0.77549 0.77549,0.77549c-0.00535,1.73485 -0.29347,3.49332 -0.76137,5.22109c0.68801,-0.23249 1.3808,-0.44674 2.09728,-0.60246l0.37017,-0.0174c0,0 0.77549,0 0.77549,0.77549z"/><path d="M206.81235,362.45738c-0.72002,0.28801 -1.00803,-0.43201 -1.00803,-0.43201l-0.44084,-1.11467c-0.34127,-2.06702 -0.68657,-4.13392 -1.01074,-6.2037c-0.21958,-1.40197 -0.70385,-3.01689 -2.10436,-3.64986c0,0 -0.69361,-0.34682 -0.34679,-1.04043c0.34682,-0.69361 1.04043,-0.34679 1.04043,-0.34679c2.45555,1.30509 2.78361,3.81398 3.18996,6.3198c0.24355,1.50188 0.48728,3.00369 0.72602,4.50635l0.38636,0.95329c0,0 0.28801,0.72002 -0.43201,1.00803z"/><path d="M210.76688,368.27506c0.2866,-0.72059 1.00718,-0.43399 1.00718,-0.43399l0.22007,0.08753c0.48039,0.19106 0.98914,0.32229 1.44117,0.57319c0.28492,0.15815 0.46518,0.8118 0.74078,0.63792c0.2756,-0.17388 -0.23592,-0.61807 -0.25681,-0.94326c-0.05682,-0.88459 0.05423,-1.78094 -0.07246,-2.65824c-0.25764,-1.78398 -0.4307,-3.55825 -0.62377,-5.34478c-0.10371,0.22983 -0.21894,0.46525 -0.34834,0.71031c-0.29555,0.55972 -0.44604,1.24237 -0.92134,1.66037c-0.34277,0.30145 -0.87486,0.31798 -1.33132,0.32074c-2.11894,0.01279 -2.54064,-0.07779 -2.8046,-2.35711c-0.06147,-0.53075 0.19298,-1.05137 0.312,-1.57224c0.13943,-0.61015 0.0903,-1.31689 0.46308,-1.81965c0.12861,-0.17346 2.64278,-1.50428 2.94088,-1.66479c0,0 0.68279,-0.36766 1.05045,0.31514c0.36766,0.68279 -0.31514,1.05045 -0.31514,1.05045c-0.4552,0.24511 -0.90412,0.50223 -1.36559,0.73532c-0.35085,0.17722 -0.83731,0.17846 -1.07027,0.49506c-0.24255,0.32963 -0.10886,0.8117 -0.18687,1.21345c-0.04113,0.21181 -0.58358,1.75654 -0.11978,2.09919c0.27346,0.20203 0.67927,-0.03129 1.01903,-0.04389c0.15871,-0.00588 0.37438,0.11025 0.47632,-0.01154c0.25837,-0.30867 0.29642,-0.74899 0.46589,-1.11411c0.62612,-1.34899 0.8958,-2.14916 1.18927,-3.61168l0.10584,-1.12926c0.03268,-0.39822 0.36622,-0.71121 0.77286,-0.71121c0.39496,0 0.72096,0.29526 0.76931,0.6771l0.20519,1.4363l-0.01103,0.00158c0.00573,0.01767 0.01136,0.03537 0.01688,0.05312c0.10358,0.33295 -0.02227,0.69814 0.00076,1.04607c0.09454,1.42799 0.26329,2.88525 0.41097,4.30888c0.15055,1.45128 0.58224,2.93179 0.62365,4.39027c0.01523,0.53633 -0.21447,3.55743 -0.56748,3.78015c-0.41211,0.26001 -3.03288,-0.86297 -3.58274,-1.08166l-0.22007,-0.08753c0,0 -0.72059,-0.2866 -0.43399,-1.00718z"/><path d="M223.85973,363.48739c-0.50926,0.58484 -1.0941,0.07559 -1.0941,0.07559l-1.2684,-1.15597c-0.11292,-0.46774 -0.29877,-1.15469 -0.42597,-1.86606c-0.20624,0.37574 -0.42174,0.74357 -0.65337,1.09539c-0.40218,0.61088 -0.58276,1.70662 -1.3123,1.75846c-2.0072,0.14264 -2.01071,-2.05365 -2.12346,-3.13464c-0.06349,-0.60866 -0.32233,-1.24565 -0.14188,-1.8304c0.62798,-2.03501 2.18246,-2.04518 3.87592,-2.22037c0,0 0.25726,-0.02572 0.48955,0.10108c0.14141,-0.18923 0.3672,-0.31173 0.6216,-0.31173c0.42829,0 0.77549,0.3472 0.77549,0.77549v1.55098c0.20569,1.0789 0.0135,2.18067 0.22749,3.28902l0.95385,0.77907c0,0 0.58484,0.50926 0.07559,1.0941zM220.76771,357.76112c-0.82306,0.0579 -2.1859,-0.04616 -2.43202,1.07991c-0.09025,0.41292 0.14183,0.83382 0.18858,1.2539c0.04068,0.36558 0,0.74064 0.0735,1.10106c0.04815,0.2361 0.08514,0.79624 0.28638,0.66372c0.27299,-0.17976 0.05233,-0.66117 0.17179,-0.96542c0.42083,-1.07177 1.12729,-2.12068 1.71176,-3.13316z"/><path d="M229.89239,362.30604c-0.77549,0 -0.77549,-0.77549 -0.77549,-0.77549l0.00238,-0.97332c-0.27366,-1.70098 -0.53576,-3.40368 -0.81902,-5.1031c0,0 -0.12749,-0.76494 0.63744,-0.89243c0.76494,-0.12749 0.89243,0.63744 0.89243,0.63744c0.29061,1.74364 0.56411,3.49001 0.83537,5.23676l0.00238,1.09464c0,0 0,0.77549 -0.77549,0.77549z"/><path d="M227.46253,353.46547c0,-0.42829 0.3472,-0.77549 0.77549,-0.77549c0.42829,0 0.77549,0.3472 0.77549,0.77549c0,0.42829 -0.3472,0.77549 -0.77549,0.77549c-0.42829,0 -0.77549,-0.3472 -0.77549,-0.77549z"/><path d="M240.56027,361.21484c-0.71827,-0.29235 -0.42592,-1.01062 -0.42592,-1.01062l0.43166,-1.03941c0.10773,-1.00438 0.0994,-2.45245 -0.52793,-3.3565c-0.17275,-0.24895 -0.5425,-0.27266 -0.79736,-0.43656c-0.33561,-0.21582 -0.57279,-0.67107 -0.97073,-0.70043c-0.39793,-0.02936 -0.69785,0.38955 -1.06302,0.55036c-0.38029,0.16747 -0.87585,0.13822 -1.16911,0.4326c-0.26393,0.26493 -0.2072,0.71903 -0.33003,1.07225c-0.00828,0.02382 -0.0164,0.04748 -0.02436,0.07099c0.16464,0.93697 0.32665,1.87441 0.48652,2.8122l-0.0497,0.1166l0.04194,0.00602l-0.12386,0.86307c-0.04854,0.38162 -0.37444,0.67665 -0.76925,0.67665c-0.24757,0 -0.46805,-0.11601 -0.61003,-0.29664l-0.8227,-1.02838l0.01041,-0.00833c-0.0507,-0.06908 -0.09657,-0.14196 -0.13663,-0.21942c-0.46559,-0.90033 0.0035,-2.17287 0.37348,-3.10356c-0.00642,-0.14516 0.01261,-0.44128 0.24265,-0.63826c0.15367,-0.49015 0.23485,-1.0318 0.58767,-1.39202c0.43337,-0.44246 1.11121,-0.54902 1.68203,-0.78933c0.58681,-0.24704 1.15316,-0.71841 1.78812,-0.67156c0.05702,0.00421 2.66942,1.4451 2.86948,1.72042c0.3559,0.48979 0.42138,1.13533 0.61839,1.70783c0.32452,0.94306 0.29363,1.99248 0.19939,2.98536l-0.50049,1.25076c0,0 -0.29235,0.71827 -1.01062,0.42592z"/></g></g></svg>